<svg width="60" height="14" viewBox="0 0 60 14" fill="none" xmlns="http://www.w3.org/2000/svg">
<path d="M6.79 13.68C5.47 13.68 4.336 13.416 3.388 12.888C2.452 12.348 1.732 11.592 1.228 10.62C0.724 9.636 0.472 8.478 0.472 7.146C0.472 5.814 0.724 4.662 1.228 3.69C1.732 2.718 2.452 1.968 3.388 1.44C4.336 0.899999 5.47 0.629999 6.79 0.629999C7.45 0.629999 8.098 0.713999 8.734 0.881999C9.37 1.05 9.928 1.29 10.408 1.602C10.72 1.806 10.906 2.052 10.966 2.34C11.026 2.616 10.99 2.874 10.858 3.114C10.726 3.342 10.528 3.498 10.264 3.582C10 3.654 9.706 3.582 9.382 3.366C9.01 3.126 8.608 2.952 8.176 2.844C7.744 2.736 7.306 2.682 6.862 2.682C5.578 2.682 4.6 3.072 3.928 3.852C3.256 4.62 2.92 5.718 2.92 7.146C2.92 8.574 3.256 9.678 3.928 10.458C4.6 11.238 5.578 11.628 6.862 11.628C7.318 11.628 7.768 11.574 8.212 11.466C8.656 11.346 9.076 11.166 9.472 10.926C9.796 10.722 10.084 10.656 10.336 10.728C10.588 10.8 10.774 10.95 10.894 11.178C11.026 11.394 11.068 11.634 11.02 11.898C10.972 12.162 10.81 12.396 10.534 12.6C10.054 12.948 9.478 13.218 8.806 13.41C8.146 13.59 7.474 13.68 6.79 13.68ZM15.486 13.68C14.85 13.68 14.28 13.56 13.776 13.32C13.284 13.068 12.894 12.732 12.606 12.312C12.33 11.892 12.192 11.418 12.192 10.89C12.192 10.242 12.36 9.732 12.696 9.36C13.032 8.976 13.578 8.7 14.334 8.532C15.09 8.364 16.104 8.28 17.376 8.28H18.006V7.902C18.006 7.302 17.874 6.87 17.61 6.606C17.346 6.342 16.902 6.21 16.278 6.21C15.93 6.21 15.552 6.252 15.144 6.336C14.748 6.42 14.328 6.564 13.884 6.768C13.596 6.9 13.356 6.918 13.164 6.822C12.972 6.714 12.84 6.552 12.768 6.336C12.708 6.108 12.72 5.88 12.804 5.652C12.9 5.424 13.086 5.256 13.362 5.148C13.914 4.92 14.442 4.758 14.946 4.662C15.462 4.566 15.93 4.518 16.35 4.518C17.634 4.518 18.588 4.818 19.212 5.418C19.836 6.006 20.148 6.924 20.148 8.172V12.492C20.148 13.26 19.8 13.644 19.104 13.644C18.396 13.644 18.042 13.26 18.042 12.492V12.096C17.838 12.588 17.514 12.978 17.07 13.266C16.626 13.542 16.098 13.68 15.486 13.68ZM15.954 12.132C16.542 12.132 17.028 11.928 17.412 11.52C17.808 11.112 18.006 10.596 18.006 9.972V9.576H17.394C16.266 9.576 15.48 9.666 15.036 9.846C14.604 10.014 14.388 10.326 14.388 10.782C14.388 11.178 14.526 11.502 14.802 11.754C15.078 12.006 15.462 12.132 15.954 12.132ZM25.4377 13.68C23.4337 13.68 22.4317 12.558 22.4317 10.314V1.8C22.4317 1.044 22.8037 0.665999 23.5477 0.665999C24.3037 0.665999 24.6817 1.044 24.6817 1.8V10.206C24.6817 11.286 25.1317 11.826 26.0317 11.826C26.1277 11.826 26.2177 11.826 26.3017 11.826C26.3857 11.814 26.4697 11.802 26.5537 11.79C26.7217 11.766 26.8357 11.814 26.8957 11.934C26.9557 12.042 26.9857 12.27 26.9857 12.618C26.9857 12.918 26.9257 13.152 26.8057 13.32C26.6857 13.488 26.4877 13.59 26.2117 13.626C25.9597 13.662 25.7017 13.68 25.4377 13.68ZM31.1858 13.68C29.1818 13.68 28.1798 12.558 28.1798 10.314V1.8C28.1798 1.044 28.5518 0.665999 29.2958 0.665999C30.0518 0.665999 30.4298 1.044 30.4298 1.8V10.206C30.4298 11.286 30.8798 11.826 31.7798 11.826C31.8758 11.826 31.9658 11.826 32.0498 11.826C32.1338 11.814 32.2178 11.802 32.3018 11.79C32.4698 11.766 32.5838 11.814 32.6438 11.934C32.7038 12.042 32.7338 12.27 32.7338 12.618C32.7338 12.918 32.6738 13.152 32.5538 13.32C32.4338 13.488 32.2358 13.59 31.9598 13.626C31.7078 13.662 31.4498 13.68 31.1858 13.68ZM44.3045 13.68C42.5645 13.68 41.2325 13.23 40.3085 12.33C39.3965 11.418 38.9405 10.074 38.9405 8.298V1.836C38.9405 1.056 39.3245 0.665999 40.0925 0.665999C40.8605 0.665999 41.2445 1.056 41.2445 1.836V8.28C41.2445 9.42 41.5025 10.278 42.0185 10.854C42.5465 11.418 43.3085 11.7 44.3045 11.7C46.3325 11.7 47.3465 10.56 47.3465 8.28V1.836C47.3465 1.056 47.7305 0.665999 48.4985 0.665999C49.2545 0.665999 49.6325 1.056 49.6325 1.836V8.298C49.6325 10.074 49.1825 11.418 48.2825 12.33C47.3825 13.23 46.0565 13.68 44.3045 13.68ZM55.3256 13.68C54.8096 13.68 54.2636 13.626 53.6876 13.518C53.1116 13.41 52.5956 13.224 52.1396 12.96C51.8876 12.816 51.7316 12.642 51.6716 12.438C51.6116 12.222 51.6176 12.024 51.6896 11.844C51.7736 11.652 51.9056 11.514 52.0856 11.43C52.2776 11.346 52.4996 11.364 52.7516 11.484C53.2316 11.712 53.6816 11.874 54.1016 11.97C54.5216 12.054 54.9356 12.096 55.3436 12.096C55.9196 12.096 56.3456 12 56.6216 11.808C56.9096 11.604 57.0536 11.34 57.0536 11.016C57.0536 10.512 56.6816 10.188 55.9376 10.044L54.1376 9.702C52.6136 9.414 51.8516 8.622 51.8516 7.326C51.8516 6.75 52.0076 6.252 52.3196 5.832C52.6436 5.412 53.0876 5.088 53.6516 4.86C54.2156 4.632 54.8636 4.518 55.5956 4.518C56.6516 4.518 57.5936 4.752 58.4216 5.22C58.6496 5.34 58.7816 5.508 58.8176 5.724C58.8656 5.928 58.8416 6.126 58.7456 6.318C58.6616 6.498 58.5236 6.63 58.3316 6.714C58.1396 6.786 57.9176 6.762 57.6656 6.642C57.2936 6.45 56.9336 6.312 56.5856 6.228C56.2496 6.144 55.9256 6.102 55.6136 6.102C55.0256 6.102 54.5876 6.204 54.2996 6.408C54.0236 6.612 53.8856 6.882 53.8856 7.218C53.8856 7.746 54.2276 8.07 54.9116 8.19L56.7116 8.532C57.4916 8.676 58.0796 8.94 58.4756 9.324C58.8836 9.708 59.0876 10.224 59.0876 10.872C59.0876 11.748 58.7456 12.438 58.0616 12.942C57.3776 13.434 56.4656 13.68 55.3256 13.68Z" fill="white"/>
</svg>
